<?xml version="1.0" encoding="UTF-8"?>
<svg id="Layer_1" data-name="Layer 1" xmlns="http://www.w3.org/2000/svg" xmlns:xlink="http://www.w3.org/1999/xlink" viewBox="0 0 869.77 241.06">
  <defs>
    <style>
      .cls-1 {
        fill: #507abd;
      }

      .cls-1, .cls-2, .cls-3, .cls-4, .cls-5, .cls-6, .cls-7, .cls-8, .cls-9, .cls-10, .cls-11, .cls-12, .cls-13, .cls-14, .cls-15, .cls-16, .cls-17, .cls-18 {
        stroke-width: 0px;
      }

      .cls-2 {
        fill: url(#linear-gradient);
      }

      .cls-3 {
        fill: #6360ab;
      }

      .cls-4 {
        fill: #6261ab;
      }

      .cls-5 {
        fill: url(#linear-gradient-6);
      }

      .cls-6 {
        fill: url(#linear-gradient-11);
      }

      .cls-7 {
        fill: url(#linear-gradient-5);
      }

      .cls-8 {
        fill: url(#linear-gradient-2);
      }

      .cls-9 {
        fill: #7b54a2;
      }

      .cls-10 {
        fill: url(#linear-gradient-7);
      }

      .cls-11 {
        fill: url(#linear-gradient-3);
      }

      .cls-12 {
        fill: #f1f2f2;
      }

      .cls-13 {
        fill: url(#linear-gradient-9);
      }

      .cls-14 {
        fill: url(#radial-gradient);
      }

      .cls-15 {
        fill: url(#linear-gradient-8);
      }

      .cls-16 {
        fill: url(#linear-gradient-10);
      }

      .cls-17 {
        fill: url(#linear-gradient-4);
      }

      .cls-18 {
        fill: #7456a4;
      }
    </style>
    <linearGradient id="linear-gradient" x1="34.12" y1="158.94" x2="243.76" y2="158.94" gradientUnits="userSpaceOnUse">
      <stop offset="0" stop-color="#7a54a2"/>
      <stop offset="1" stop-color="#507abd"/>
    </linearGradient>
    <linearGradient id="linear-gradient-2" x1="61.12" y1="174.16" x2="157.97" y2="174.16" xlink:href="#linear-gradient"/>
    <linearGradient id="linear-gradient-3" x1="0" y1="114.06" x2="225.93" y2="114.06" gradientUnits="userSpaceOnUse">
      <stop offset="0" stop-color="#7a54a2"/>
      <stop offset="1" stop-color="#507abd"/>
    </linearGradient>
    <radialGradient id="radial-gradient" cx="109.44" cy="141.29" fx="109.44" fy="141.29" r="13.21" gradientUnits="userSpaceOnUse">
      <stop offset="0" stop-color="#f1f2f2"/>
      <stop offset="1" stop-color="#507abd"/>
    </radialGradient>
    <linearGradient id="linear-gradient-4" x1="24.49" y1="83.69" x2="201.44" y2="83.69" gradientUnits="userSpaceOnUse">
      <stop offset="0" stop-color="#763393"/>
      <stop offset="1" stop-color="#656bb2"/>
    </linearGradient>
    <linearGradient id="linear-gradient-5" x1="44.72" y1="114.06" x2="50.49" y2="114.06" gradientUnits="userSpaceOnUse">
      <stop offset="0" stop-color="#7954a2"/>
      <stop offset="1" stop-color="#5078bc"/>
    </linearGradient>
    <linearGradient id="linear-gradient-6" x1="161.93" y1="120.28" x2="165.37" y2="120.28" xlink:href="#linear-gradient"/>
    <linearGradient id="linear-gradient-7" x1="78.66" y1="83.34" x2="154.97" y2="83.34" xlink:href="#linear-gradient"/>
    <linearGradient id="linear-gradient-8" x1="123.24" y1="84.08" x2="166.06" y2="84.08" gradientTransform="translate(87.01 -72.99) rotate(39.68)" gradientUnits="userSpaceOnUse">
      <stop offset="0" stop-color="#7954a2"/>
      <stop offset="1" stop-color="#6868af"/>
    </linearGradient>
    <linearGradient id="linear-gradient-9" x1="48.4" y1="80.45" x2="103.94" y2="80.45" gradientTransform="translate(87.53 -29.75) rotate(49.32)" gradientUnits="userSpaceOnUse">
      <stop offset="0" stop-color="#7858a5"/>
      <stop offset="1" stop-color="#666bb1"/>
    </linearGradient>
    <linearGradient id="linear-gradient-10" x1="102.9" y1="47.93" x2="120.43" y2="47.93" gradientUnits="userSpaceOnUse">
      <stop offset="0" stop-color="#7954a2"/>
      <stop offset=".4" stop-color="#7359a5"/>
      <stop offset=".93" stop-color="#646ab1"/>
      <stop offset="1" stop-color="#626db3"/>
    </linearGradient>
    <linearGradient id="linear-gradient-11" x1="558.87" y1="109.41" x2="704.82" y2="109.41" gradientUnits="userSpaceOnUse">
      <stop offset="0" stop-color="#7b54a2"/>
      <stop offset=".32" stop-color="#6765ae"/>
      <stop offset=".71" stop-color="#5674b9"/>
      <stop offset="1" stop-color="#507abd"/>
    </linearGradient>
  </defs>
  <g>
    <path class="cls-2" d="m217.79,234.14L110.06,99.83l-69.3,83.13h0c-7.84-6.53-8.89-18.18-2.36-26.02l63.6-76.3c4.31-5.17,12.27-5.09,16.48.16l125.27,156.19h0c-7.96,6.38-19.58,5.11-25.97-2.85Z"/>
    <path class="cls-8" d="m111.25,172.42c-14.81,0-28.65-4.25-40.41-11.6l-9.72,11.66c14.44,9.49,31.66,15.01,50.13,15.01,17.04,0,33.01-4.7,46.72-12.87l-9.53-11.89c-11.03,6.17-23.71,9.69-37.18,9.69Z"/>
    <path class="cls-11" d="m225.91,115.94C226.96,53.06,177.14,1.05,114.86.02,52.58-1.02,1.06,49.3.02,112.18c-1.05,62.89,48.77,114.89,111.05,115.93,28.72.48,55.14-9.97,75.39-27.52l-11.33-14.61c-17.02,15.08-39.4,24.07-63.75,23.67-25.13-.42-47.84-10.78-64.51-27.31l-9.1,5.75c-8.53-14.64-19.58-57.38-19.27-75.59.88-52.7,43.97-94.87,96.07-94.01,52.1.87,93.77,44.45,92.89,97.15-.32,19-6.12,36.63-15.86,51.37l11.84,15.27c13.76-18.54,22.08-41.45,22.49-66.33Z"/>
    <circle class="cls-14" cx="109.44" cy="141.29" r="13.21"/>
    <path class="cls-17" d="m195.94,143.29l-2.3-1.77.15-.42c3.36-9.49,5-19.44,4.88-29.57-.56-46.32-38.7-84.29-85.02-84.65-23-.18-44.66,8.66-61.02,24.89-16.36,16.23-25.37,37.83-25.37,60.81,0,6.31.7,12.62,2.08,18.76l.09.38-2.42,1.86-.22-.93c-1.53-6.55-2.3-13.3-2.3-20.07,0-23.73,9.3-46.02,26.19-62.78,16.89-16.76,39.22-25.89,62.99-25.7,23.22.18,45.13,9.37,61.7,25.88,16.56,16.51,25.83,38.39,26.08,61.61.12,10.59-1.64,20.99-5.21,30.9l-.29.79Zm-.84-2.2l.25.2c3.34-9.53,4.97-19.51,4.86-29.68-.52-47.21-39.34-85.91-86.55-86.28-23.4-.2-45.46,8.82-62.11,25.34-16.65,16.53-25.82,38.51-25.82,61.9,0,6.35.69,12.69,2.06,18.85l.27-.21c-1.34-6.11-2.02-12.38-2.02-18.65,0-23.31,9.14-45.22,25.73-61.69,16.43-16.3,38.14-25.25,61.2-25.25.23,0,.46,0,.7,0,22.8.18,44.31,9.2,60.58,25.4,16.27,16.2,25.38,37.68,25.66,60.47.12,10.13-1.49,20.07-4.8,29.58Z"/>
    <path class="cls-4" d="m29.29,138.37c-1.98,0-3.59-1.61-3.59-3.59s1.61-3.59,3.59-3.59,3.59,1.61,3.59,3.59-1.61,3.59-3.59,3.59Zm0-5.94c-1.3,0-2.36,1.06-2.36,2.35s1.06,2.36,2.36,2.36,2.36-1.06,2.36-2.36-1.06-2.35-2.36-2.35Z"/>
    <path class="cls-18" d="m193.4,147.85c-.4,0-.79-.07-1.18-.2-.9-.31-1.63-.96-2.05-1.82-.86-1.78-.12-3.93,1.66-4.79.86-.42,1.84-.48,2.74-.16.9.31,1.63.96,2.05,1.82s.48,1.84.16,2.74c-.31.9-.96,1.63-1.82,2.05-.5.24-1.03.36-1.56.36Zm0-5.94c-.35,0-.7.08-1.03.24-1.17.57-1.66,1.98-1.09,3.15.27.57.75.99,1.35,1.2.59.21,1.23.17,1.8-.11.57-.27.99-.75,1.2-1.35.21-.59.17-1.23-.11-1.8h0c-.27-.57-.75-.99-1.35-1.2-.25-.09-.51-.13-.77-.13Z"/>
    <path class="cls-7" d="m47.6,116.95c-1.59,0-2.89-1.3-2.89-2.89s1.3-2.89,2.89-2.89,2.89,1.3,2.89,2.89-1.3,2.89-2.89,2.89Zm0-4.85c-1.08,0-1.96.88-1.96,1.96s.88,1.96,1.96,1.96,1.96-.88,1.96-1.96-.88-1.96-1.96-1.96Z"/>
    <path class="cls-3" d="m167.15,114.11c-1.59,0-2.89-1.3-2.89-2.89s1.3-2.89,2.89-2.89,2.89,1.3,2.89,2.89-1.3,2.89-2.89,2.89Zm0-4.85c-1.08,0-1.96.88-1.96,1.96s.88,1.96,1.96,1.96,1.96-.88,1.96-1.96-.88-1.96-1.96-1.96Z"/>
    <path class="cls-5" d="m163.65,122c-.95,0-1.72-.77-1.72-1.72s.77-1.72,1.72-1.72,1.72.77,1.72,1.72-.77,1.72-1.72,1.72Zm0-2.82c-.61,0-1.1.49-1.1,1.1s.49,1.1,1.1,1.1,1.1-.49,1.1-1.1-.49-1.1-1.1-1.1Z"/>
    <path class="cls-12" d="m155.53,113.37c-.95,0-1.72-.77-1.72-1.72s.77-1.72,1.72-1.72,1.72.77,1.72,1.72-.77,1.72-1.72,1.72Zm0-2.82c-.61,0-1.1.49-1.1,1.1s.49,1.1,1.1,1.1,1.1-.49,1.1-1.1-.49-1.1-1.1-1.1Z"/>
    <path class="cls-10" d="m154.49,110.44l-44.25-53.78-31.12,36.99-.47-.4,30.85-36.67c.39-.46,1.1-.46,1.48,0l43.98,53.46-.48.39Z"/>
    <rect class="cls-15" x="144.03" y="50.89" width="1.23" height="66.37" rx=".62" ry=".62" transform="translate(-20.36 111.73) rotate(-39.68)"/>
    <rect class="cls-13" x="34.3" y="79.84" width="83.75" height="1.23" transform="translate(-34.49 85.77) rotate(-49.32)"/>
    <path class="cls-16" d="m119.34,54l-9.36-11.39-6.01,6.5c-.23.25-.62.26-.87.03h0c-.25-.23-.26-.62-.03-.87l5.61-6.07c.72-.78,1.96-.74,2.63.08l8.98,10.93c.22.26.18.65-.08.87h0c-.26.22-.65.18-.87-.08Z"/>
  </g>
  <g>
    <path class="cls-9" d="m446.66,183.22h-7.85c-14.25,0-27.21-8.28-33.19-21.22h0c-2.3-4.98-7.29-8.17-12.78-8.17h-53.31c-5.46,0-10.43,3.16-12.75,8.1l-9.98,21.28h0c-14.51,0-24.08-15.11-17.88-28.23l52.27-110.63c2.33-4.92,7.28-8.06,12.73-8.06h4.39c5.45,0,10.4,3.14,12.73,8.06l65.61,138.86Zm-56.01-53.07l-24.43-52.89-24.79,52.89h49.22Z"/>
    <path class="cls-9" d="m471.82,64.94h-.73c-7.4,0-13.41-5.69-13.41-12.72v-.7c0-7.02,6-12.72,13.41-12.72h.73c7.4,0,13.41,5.69,13.41,12.72v.7c0,7.02-6,12.72-13.41,12.72Zm-13.77,118.28h0v-88.15c0-7.02,6-12.72,13.41-12.72h0c7.4,0,13.41,5.69,13.41,12.72v62.71c0,14.05-12,25.43-26.81,25.43Z"/>
    <path class="cls-9" d="m523.25,62.88h-.73c-7.4,0-13.41-5.79-13.41-12.94v-.71c0-7.15,6-12.94,13.41-12.94h.73c7.4,0,13.41,5.79,13.41,12.94v.71c0,7.15-6,12.94-13.41,12.94Zm13.04,120.34h-13.41c-7.4,0-13.41-5.79-13.41-12.94v-76.74c0-7.15,6-12.94,13.41-12.94h0c7.4,0,13.41,5.79,13.41,12.94v89.68Z"/>
    <path class="cls-1" d="m755.62,153.84l-12.87,27.47c-.55,1.17-1.72,1.92-3.02,1.92h-23.85c-2.44,0-4.06-2.54-3.01-4.75l61.62-130.4c3.39-7.18,10.63-11.77,18.57-11.77h0c5.62,0,10.74,3.24,13.14,8.33l63.24,133.84c1.04,2.21-.57,4.75-3.01,4.75h0c-15.83,0-30.22-9.2-36.86-23.56l-2.69-5.82m0,0l-32.61-70.09c-1.19-2.57-4.84-2.57-6.04,0l-32.61,70.09"/>
    <path class="cls-6" d="m700.92,133.22c2.6-7.46,3.9-15.37,3.9-23.72,0-10.11-1.9-19.6-5.71-28.48-3.81-8.88-9.03-16.64-15.67-23.28-6.64-6.64-14.4-11.88-23.28-15.7-8.89-3.82-18.35-5.73-28.39-5.73s-19.48,1.91-28.31,5.73c-8.83,3.82-16.56,9.06-23.2,15.7-6.64,6.64-11.86,14.4-15.67,23.28-3.81,8.88-5.71,18.37-5.71,28.48s1.9,19.58,5.71,28.4c3.81,8.82,9.03,16.55,15.67,23.19,6.64,6.65,14.37,11.88,23.2,15.7,8.83,3.82,18.26,5.73,28.31,5.73,7.85,0,15.29-1.17,22.33-3.53,7.04-2.35,13.5-5.58,19.39-9.7,7.83,8.07,20.6,8.11,28.48.09l1.65-1.68-13.85-13.93c4.85-6.23,8.57-13.08,11.17-20.55Zm-24.66-8.77l-.28.27c-4.93,14.74-16.75,26.21-31.57,30.43-.04.01-.07.02-.1.03-.22.06-.45.11-.67.17-1.07.28-2.14.55-3.24.76-1.05.2-2.11.37-3.18.49-.4.05-.81.09-1.21.13-1.32.12-2.65.2-4,.21-.06,0-.11,0-.17,0-.01,0-.02,0-.03,0-.02,0-.03,0-.05,0-5.88,0-11.41-1.1-16.62-3.19-4.75-1.86-9.14-4.44-13-7.69-1.19-.99-2.34-2.03-3.45-3.14-4.27-4.29-7.62-9.32-10.04-15.08-2.42-5.76-3.64-11.88-3.64-18.34s1.21-12.58,3.64-18.34c1.85-4.39,4.24-8.36,7.16-11.94,5.12-6.34,11.85-11.26,19.52-14.22,5.16-2.04,10.62-3.12,16.43-3.12.01,0,.03,0,.04,0s.03,0,.04,0c.83,0,1.64.08,2.46.13.76.04,1.53.04,2.27.12.74.08,1.45.22,2.18.33.82.12,1.66.21,2.47.38,15.21,3.16,27.73,13.86,33.63,28.1.03.08.07.15.11.22,2.48,5.76,3.72,11.88,3.72,18.34,0,5.22-.8,10.2-2.42,14.95Z"/>
  </g>
</svg>